<svg xmlns="http://www.w3.org/2000/svg" xmlns:xlink="http://www.w3.org/1999/xlink" width="500" zoomAndPan="magnify" viewBox="0 0 375 374.999991" height="500" preserveAspectRatio="xMidYMid meet" version="1.0"><defs><clipPath id="3e6b658bdb"><path d="M 34.570312 35.335938 L 340.570312 35.335938 L 340.570312 339.835938 L 34.570312 339.835938 Z M 34.570312 35.335938 " clip-rule="nonzero"/></clipPath></defs><g clip-path="url(#3e6b658bdb)"><path fill="#0b0060" d="M 340.300781 146.9375 C 300.519531 110.226562 260.863281 73.332031 221.324219 36.316406 C 220.664062 35.65625 219.703125 35.417969 218.800781 35.535156 C 197.589844 35.476562 176.320312 35.597656 155.109375 35.535156 C 153.367188 35.355469 152.40625 37.039062 151.261719 38 C 112.445312 74.113281 73.75 110.347656 34.992188 146.457031 C 34.570312 147.359375 34.753906 148.441406 34.691406 149.402344 C 34.691406 174.820312 34.691406 200.296875 34.691406 225.714844 C 34.691406 226.554688 34.632812 227.636719 35.472656 228.238281 C 75.3125 264.953125 114.667969 302.144531 154.207031 339.160156 C 159.675781 339.640625 165.261719 339.160156 170.792969 339.339844 C 186.835938 339.339844 202.816406 339.339844 218.863281 339.339844 C 219.824219 339.339844 221.023438 339.460938 221.6875 338.558594 C 229.859375 331.046875 237.789062 323.359375 245.839844 315.785156 C 277.207031 286.164062 308.753906 256.78125 340.238281 227.277344 C 340.417969 200.539062 340.300781 173.738281 340.300781 146.9375 Z M 322.8125 221.570312 C 319.449219 224.574219 316.324219 227.757812 312.898438 230.703125 C 313.019531 207.027344 312.960938 183.292969 312.898438 159.617188 C 313.140625 158.175781 311.636719 157.515625 310.734375 156.734375 C 304.726562 151.386719 298.898438 145.796875 292.769531 140.628906 C 288.925781 144.054688 285.320312 147.71875 281.414062 151.085938 C 286.339844 155.832031 291.507812 160.398438 296.496094 165.144531 C 296.796875 168.75 296.554688 172.355469 296.617188 175.960938 C 296.554688 193.207031 296.675781 210.390625 296.554688 227.636719 L 296.375 228.117188 C 272.28125 250.953125 247.945312 273.542969 223.789062 296.316406 C 223.25 296.796875 222.707031 297.519531 221.867188 297.339844 C 204.621094 297.339844 187.375 297.398438 170.191406 297.398438 C 154.566406 283.277344 139.546875 268.617188 123.921875 254.558594 C 119.957031 257.980469 116.230469 261.648438 112.386719 265.191406 C 112.867188 266.214844 113.828125 266.875 114.609375 267.65625 C 130.953125 283.039062 147.597656 298.121094 163.761719 313.625 C 183.890625 314.105469 204.140625 313.5625 224.269531 313.921875 C 221.265625 316.808594 218.320312 319.753906 215.257812 322.578125 C 196.871094 322.636719 178.484375 322.578125 160.09375 322.578125 C 133.535156 297.640625 106.675781 273.003906 80.179688 248.007812 C 79.519531 247.347656 78.496094 246.804688 78.675781 245.664062 C 78.738281 218.804688 78.617188 191.945312 78.675781 165.085938 L 78.855469 164.605469 C 94.117188 150.785156 108.902344 136.484375 124.101562 122.542969 C 138.945312 108.785156 153.847656 94.964844 168.75 81.203125 C 169.648438 80.300781 170.609375 79.460938 171.632812 78.738281 C 181.96875 78.859375 192.304688 78.679688 202.636719 78.738281 C 202.816406 78.859375 203.179688 79.039062 203.359375 79.160156 C 222.585938 96.945312 241.875 114.671875 261.164062 132.457031 C 265.25 129.09375 268.855469 125.246094 272.761719 121.761719 C 252.089844 102.472656 231.359375 83.304688 210.570312 64.136719 C 209.726562 63.355469 208.828125 62.515625 207.566406 62.695312 C 194.164062 62.875 180.707031 62.757812 167.304688 62.757812 C 166.105469 62.757812 164.601562 62.515625 163.761719 63.65625 C 131.914062 93.28125 100.007812 122.84375 68.339844 152.707031 C 66.480469 154.449219 64.675781 156.253906 62.691406 157.875 C 62.574219 182.269531 62.691406 206.726562 62.632812 231.121094 C 58.847656 227.699219 55.183594 224.09375 51.277344 220.789062 C 51.15625 203.0625 51.277344 185.273438 51.214844 167.550781 C 51.277344 162.800781 51.035156 158.117188 51.277344 153.367188 C 55.421875 150.0625 59.027344 146.097656 62.992188 142.554688 C 93.699219 113.589844 124.703125 84.867188 155.589844 56.085938 C 157.03125 54.765625 158.351562 53.320312 160.035156 52.300781 C 178.121094 52.359375 196.269531 52.242188 214.414062 52.359375 C 215.796875 53.082031 216.820312 54.34375 218.019531 55.304688 C 251.667969 86.308594 285.136719 117.617188 318.847656 148.621094 C 320.589844 150.363281 322.574219 151.867188 324.195312 153.730469 C 324.316406 175.78125 324.195312 197.832031 324.316406 219.824219 C 324.074219 220.605469 323.292969 220.96875 322.8125 221.570312 Z M 322.8125 221.570312 " fill-opacity="1" fill-rule="nonzero"/></g><path fill="#0b0060" d="M 194.105469 86.429688 C 190.257812 82.644531 183.351562 82.824219 179.625 86.730469 C 149.699219 114.132812 120.136719 141.953125 90.394531 169.472656 C 90.03125 170.3125 90.152344 171.273438 90.09375 172.175781 C 90.152344 184.195312 90.09375 196.210938 90.03125 208.230469 C 89.851562 209.128906 90.695312 209.671875 91.234375 210.210938 C 118.214844 235.148438 145.375 259.84375 172.234375 284.902344 C 173.253906 286.042969 174.816406 285.683594 176.140625 285.742188 C 182.867188 285.683594 189.597656 285.800781 196.328125 285.621094 C 196.269531 280.335938 196.328125 275.046875 196.269531 269.757812 C 190.621094 269.457031 184.910156 269.9375 179.324219 269.519531 C 155.527344 247.347656 131.675781 225.292969 107.757812 203.300781 C 107.21875 202.761719 106.4375 202.339844 106.136719 201.5 C 106.257812 193.207031 106.015625 184.855469 106.257812 176.5625 C 108 175.242188 109.5625 173.617188 111.242188 172.175781 C 128.070312 156.3125 145.074219 140.628906 161.898438 124.828125 C 170.25 117.074219 178.664062 109.445312 186.894531 101.574219 C 214.296875 126.449219 241.394531 151.566406 268.433594 176.683594 C 268.375 184.855469 268.613281 193.085938 268.3125 201.257812 C 263.867188 205.824219 259.121094 210.089844 254.492188 214.417969 C 238.8125 228.960938 223.246094 243.621094 207.683594 258.34375 C 214.476562 264.773438 221.386719 270.960938 228.113281 277.449219 C 247.042969 259.605469 266.269531 242.058594 284.957031 223.972656 C 284.777344 206.003906 284.839844 187.980469 284.898438 170.011719 C 271.800781 157.875 258.460938 145.917969 245.421875 133.660156 C 228.355469 117.855469 211.230469 102.113281 194.105469 86.429688 Z M 194.105469 86.429688 " fill-opacity="1" fill-rule="nonzero"/><path fill="#0b0060" d="M 261.222656 191.824219 C 262.246094 188.640625 261.164062 185.035156 258.640625 182.871094 C 254.792969 179.566406 251.007812 176.082031 247.34375 172.65625 C 230.339844 157.035156 213.453125 141.230469 196.449219 125.546875 C 194.527344 123.683594 192.542969 121.640625 189.960938 120.621094 C 187.855469 119.960938 185.632812 120.261719 183.53125 120.859375 C 179.746094 122.542969 177.160156 126.089844 173.976562 128.613281 C 154.449219 146.9375 134.617188 164.964844 115.269531 183.472656 C 113.046875 185.214844 112.445312 188.160156 112.804688 190.804688 C 112.988281 193.628906 115.390625 195.492188 117.253906 197.414062 C 138.464844 217.0625 159.613281 236.769531 181.007812 256.238281 C 184.128906 259.542969 189.898438 259.84375 193.265625 256.71875 C 214.414062 236.949219 235.566406 217.242188 256.65625 197.414062 C 258.398438 195.730469 260.382812 194.167969 261.222656 191.824219 Z M 187.195312 240.074219 C 168.929688 223.128906 150.542969 206.304688 132.457031 189.179688 C 137.261719 185.214844 141.527344 180.648438 146.214844 176.503906 C 159.796875 163.824219 173.496094 151.265625 187.015625 138.527344 C 205.28125 155.410156 223.609375 172.234375 241.875 189.121094 C 223.789062 206.1875 205.34375 223.011719 187.195312 240.074219 Z M 187.195312 240.074219 " fill-opacity="1" fill-rule="nonzero"/><path fill="#0b0060" d="M 179.503906 161 C 171.152344 168.511719 162.980469 176.203125 154.746094 183.894531 C 153.183594 185.394531 152.523438 187.558594 152.765625 189.660156 C 152.585938 192.246094 154.507812 194.226562 156.25 195.789062 C 163.582031 202.460938 170.851562 209.3125 178.183594 215.921875 C 180.464844 218.144531 182.988281 220.605469 186.414062 220.789062 C 189.296875 221.085938 192.121094 219.765625 194.105469 217.722656 C 201.617188 210.871094 209.128906 203.902344 216.636719 196.992188 C 218.5 195.128906 220.90625 193.449219 221.625 190.804688 C 222.226562 188.28125 221.503906 185.394531 219.460938 183.652344 C 212.792969 177.585938 206.0625 171.457031 199.394531 165.328125 C 196.929688 163.222656 194.765625 160.640625 192.003906 158.898438 C 189.71875 157.335938 186.714844 157.273438 184.128906 158.054688 C 182.328125 158.535156 180.886719 159.796875 179.503906 161 Z M 187.316406 175.960938 C 192.0625 180.167969 196.628906 184.613281 201.316406 188.878906 C 196.628906 193.265625 191.941406 197.652344 187.136719 201.980469 C 182.386719 197.773438 177.882812 193.328125 173.253906 189.0625 C 177.820312 184.613281 182.808594 180.527344 187.316406 175.960938 Z M 187.316406 175.960938 " fill-opacity="1" fill-rule="nonzero"/></svg>